<svg id="Layer_1" data-name="Layer 1" xmlns="http://www.w3.org/2000/svg" viewBox="0 0 152.96 126.46"><defs><style>.cls-1,.cls-4{fill:#cc3d38;}.cls-2{fill:#fff;}.cls-3{fill:#fab99a;opacity:0.5;}.cls-4{font-size:22px;font-family:PoiretOne-Regular, Poiret One;}</style></defs><path class="cls-1" d="M114.11,191.32c1.44,16.85,14,29.31,16.83,32.18h0c2.16,2.11,5.26,5,9.09,8.16a114.63,114.63,0,0,0,13.48,9.59c9.39,5.64,14.08,8.46,19.19,8.14,3-.19,7.25-3.31,15.7-9.55,0,0,14.2-10.49,20.41-22.83a2.3,2.3,0,0,0,.26-1.91,2.56,2.56,0,0,0-2.39-1.34,29.45,29.45,0,0,1-9.93-2.71,27.49,27.49,0,0,1-4.47-3.12c-1.84-1.54-2.63-1.33-4.84-.21a44.42,44.42,0,0,0-5.11,2.05c-2.56,1.22-3.46,2.15-4.5,1.8-1.34-.46-.93-2.28-2.27-5.16a19.29,19.29,0,0,0-9.24-8.33,15.54,15.54,0,0,0-1.59-.62,7.81,7.81,0,0,0-1.29-.34c-.53-.07-.83,0-1-.2s.1-.69.19-.82c.71-1.09.82-2.48,1.44-3.63.82-1.53,5.33-20.42-7.74-30.85-9.92-7.9-24.33-6.46-33.05.55C112.38,171,113.65,185.92,114.11,191.32Z" transform="translate(-107.39 -153.06)"/><circle class="cls-1" cx="109.12" cy="28.33" r="28.33"/><circle class="cls-2" cx="109.12" cy="28.33" r="15.52"/><ellipse class="cls-3" cx="109.08" cy="28.29" rx="15.56" ry="15.52"/><circle class="cls-1" cx="109.12" cy="28.3" r="7.76"/><text class="cls-4" transform="translate(0 121.66)"><tspan xml:space="preserve">f l e x   a p p e a l</tspan></text></svg>