<?xml version="1.0" standalone="no"?>
<!DOCTYPE svg PUBLIC "-//W3C//DTD SVG 20010904//EN"
 "http://www.w3.org/TR/2001/REC-SVG-20010904/DTD/svg10.dtd">
<svg version="1.0" xmlns="http://www.w3.org/2000/svg"
 width="1101.000000pt" height="1024.000000pt" viewBox="0 0 1101.000000 1024.000000"
 preserveAspectRatio="xMidYMid meet">

<g transform="translate(0.000000,1024.000000) scale(0.100000,-0.100000)"
fill="#000000" stroke="none">
<path d="M4638 8860 c-38 -4 -71 -9 -74 -13 -4 -4 -40 -62 -81 -129 -144 -238
-261 -502 -352 -796 -29 -94 -56 -159 -101 -237 -111 -191 -172 -352 -260
-680 l-43 -160 -78 -83 c-259 -274 -404 -503 -620 -975 l-59 -128 0 -104 c0
-134 -19 -274 -79 -592 -68 -352 -88 -506 -111 -831 l-10 -144 66 -156 c332
-781 673 -1159 1863 -2066 156 -119 287 -214 290 -210 3 3 8 73 11 156 l5 150
93 -71 c51 -39 98 -71 104 -71 13 0 519 170 808 271 133 47 186 71 220 99 186
152 348 275 472 358 76 51 76 52 138 173 55 107 105 230 212 514 74 200 114
431 98 575 -8 69 -6 78 18 125 20 39 26 65 26 120 1 39 -2 81 -6 95 -6 23 0
29 73 73 100 61 253 176 342 257 l67 62 47 -16 c26 -9 52 -16 58 -16 29 0 278
373 350 526 35 73 65 204 65 281 0 33 8 56 31 89 44 65 115 218 133 290 10 37
16 104 16 164 l0 101 -52 55 c-107 113 -239 181 -468 240 -74 20 -180 54 -235
78 l-100 42 5 34 c3 19 5 65 5 102 0 64 -4 75 -77 220 -73 145 -91 194 -118
330 -14 69 -63 135 -159 213 l-66 54 -1 208 c-1 165 -6 234 -23 333 -19 110
-73 335 -113 470 l-14 45 -69 13 c-86 16 -213 10 -280 -13 -125 -43 -276 -173
-404 -346 -41 -57 -84 -101 -122 -128 l-59 -42 -71 21 c-97 29 -211 50 -273
50 l-52 0 -38 98 c-117 295 -280 567 -431 717 -167 165 -316 224 -517 205z
m213 -430 c135 -69 312 -342 404 -624 40 -121 84 -326 92 -430 l6 -68 -57 3
-56 4 -16 -47 c-31 -94 -129 -225 -236 -314 l-62 -52 -31 34 c-22 23 -44 35
-73 40 -23 4 -42 11 -42 16 0 19 78 88 99 88 20 0 20 2 -9 54 -17 29 -31 67
-32 82 -1 16 16 85 37 154 36 117 39 133 39 258 1 115 3 133 18 138 22 6 94
-13 126 -34 l24 -16 -7 55 c-4 30 -16 79 -28 109 -27 72 -122 170 -191 196
l-49 18 -19 -25 c-48 -58 -111 -209 -153 -364 -82 -302 -91 -611 -24 -874 16
-64 29 -120 29 -124 0 -11 -80 -47 -106 -47 -18 0 -22 -8 -28 -51 -4 -27 -14
-65 -23 -84 -14 -30 -25 -37 -87 -55 -91 -28 -255 -113 -359 -187 -44 -32
-127 -103 -184 -159 -58 -56 -101 -91 -97 -80 13 46 105 225 152 296 94 141
178 229 341 358 23 18 24 22 22 144 -1 68 -6 153 -11 188 -5 35 -7 66 -4 69 2
3 21 -11 42 -30 37 -35 117 -99 123 -99 2 0 4 109 4 243 1 207 4 261 24 370
55 311 158 588 299 809 20 32 43 58 50 58 7 0 31 -9 53 -20z m1889 -547 c41
-135 53 -237 46 -393 -3 -80 -9 -161 -14 -180 -8 -33 -9 -30 -21 45 -7 44 -27
125 -44 180 -17 55 -33 129 -36 164 l-6 64 -44 -34 c-74 -57 -84 -77 -89 -176
l-4 -88 23 21 c13 12 34 27 47 33 l22 12 0 -88 c0 -48 7 -113 15 -143 8 -30
13 -56 11 -58 -2 -1 -35 17 -72 41 -38 25 -102 61 -141 81 -53 26 -73 42 -73
56 0 36 78 241 122 317 69 123 162 212 220 213 12 0 23 -18 38 -67z m-485
-746 c84 -57 199 -170 251 -248 24 -37 66 -113 94 -170 55 -115 59 -109 30 44
-25 127 -50 206 -100 315 -21 45 -36 82 -32 82 4 0 37 -27 74 -60 111 -101
169 -207 222 -411 13 -52 26 -87 29 -79 3 8 10 54 16 102 12 93 45 213 61 223
23 14 126 -68 135 -109 3 -11 11 -65 19 -118 12 -79 21 -109 49 -155 65 -108
79 -144 74 -181 -11 -67 -54 -83 -86 -31 l-18 30 -27 -45 c-32 -54 -55 -59
-110 -21 l-37 25 6 -22 c18 -58 61 -120 102 -148 61 -40 382 -201 468 -235 39
-15 71 -29 73 -30 2 -2 -16 -12 -41 -23 -24 -11 -47 -24 -50 -28 -3 -5 -10
-53 -17 -107 -13 -113 -16 -105 75 -208 33 -38 75 -102 101 -156 43 -87 98
-153 127 -153 7 0 27 9 45 20 18 11 35 20 39 20 3 0 3 -30 -1 -67 -8 -74 -37
-140 -94 -215 -40 -53 -62 -66 -74 -43 -5 8 -19 26 -31 40 l-22 25 -160 -55
c-214 -73 -318 -95 -495 -102 -182 -7 -270 10 -531 101 -232 80 -319 100 -413
94 -67 -5 -126 -23 -126 -38 0 -4 21 -10 46 -14 76 -10 218 -62 412 -152 217
-100 271 -119 375 -133 121 -17 221 -13 378 14 159 27 211 30 257 14 51 -17
48 -37 -11 -93 -96 -90 -297 -190 -449 -223 -40 -8 -117 -15 -171 -15 l-98 0
-57 40 c-130 90 -298 151 -493 179 -114 16 -127 16 -201 1 -48 -10 -118 -36
-176 -64 l-97 -48 50 -8 c208 -36 308 -89 450 -239 l60 -64 -59 -7 c-32 -4
-83 -19 -114 -33 l-56 -26 54 -47 c104 -91 161 -210 180 -381 16 -142 -12
-367 -71 -563 -11 -38 -18 -72 -16 -75 9 -8 169 77 257 138 47 32 117 87 156
123 l72 66 7 -76 c8 -88 8 -88 88 20 71 94 124 183 163 274 17 40 34 69 38 64
14 -22 17 -144 6 -217 -31 -202 -156 -441 -340 -649 l-60 -67 0 59 c0 33 -3
80 -6 106 l-7 47 -91 -89 c-150 -146 -340 -286 -551 -405 -91 -51 -228 -115
-280 -131 -15 -4 -65 22 -185 97 -358 224 -538 357 -769 571 -41 38 -55 46
-61 35 -7 -12 -25 -141 -33 -234 -2 -28 -15 -17 -242 210 -356 356 -497 532
-609 760 -59 118 -162 392 -152 402 2 2 21 -20 42 -49 190 -260 437 -498 699
-673 l100 -67 8 61 c10 81 24 116 40 103 118 -96 327 -222 559 -338 173 -86
218 -107 218 -99 0 2 -38 47 -85 100 -177 199 -381 451 -617 762 l-146 192
-10 -42 c-6 -23 -14 -67 -18 -96 l-7 -55 -51 55 c-61 65 -116 147 -167 246
-42 80 -40 81 -97 -10 l-30 -48 -22 48 c-85 187 -109 323 -76 435 18 62 69
163 121 241 l34 50 11 -44 c22 -91 62 -186 98 -238 21 -30 43 -56 48 -58 6 -2
18 15 28 38 l19 42 50 -59 c125 -147 329 -324 433 -375 83 -41 341 -39 444 3
l33 14 -129 76 c-291 173 -415 317 -597 691 -93 191 -93 181 -4 146 83 -32
241 -79 266 -79 9 0 -30 46 -94 112 -94 96 -221 261 -241 311 -4 11 8 18 48
27 166 37 329 103 342 137 3 8 -3 31 -14 52 l-19 39 162 80 c89 45 187 100
216 123 70 53 103 67 184 75 l65 7 41 -39 c23 -22 72 -79 109 -129 88 -119
124 -139 237 -132 92 6 170 31 264 84 l66 38 -67 6 c-150 16 -229 60 -383 214
-67 66 -135 132 -153 147 -37 31 -35 46 14 83 19 14 34 29 34 33 0 4 -19 15
-43 25 -23 10 -53 27 -67 38 l-25 21 30 21 c58 42 116 101 171 174 71 94 101
113 178 113 l58 0 -7 28 c-3 15 -12 39 -19 53 -12 24 -10 34 19 97 76 163 124
204 238 203 41 0 83 5 97 13 29 15 49 7 145 -57z m1750 -1327 c37 -23 37 -24
32 -72 -6 -47 -37 -116 -76 -167 -18 -24 -19 -24 -14 45 5 68 5 70 -21 82 -15
7 -66 12 -115 12 -51 0 -110 7 -141 16 -52 15 -53 17 -35 31 27 21 119 62 164
73 62 16 164 6 206 -20z"/>
<path d="M6004 6635 c21 -85 24 -80 -46 -92 -79 -13 -176 -52 -239 -95 -27
-18 -49 -35 -48 -38 0 -3 26 -22 57 -42 31 -21 104 -78 162 -128 149 -128 167
-132 417 -73 16 4 39 -12 101 -71 44 -43 97 -102 118 -132 30 -43 40 -52 50
-42 25 27 56 135 61 213 4 54 13 96 29 130 13 28 26 63 30 79 6 27 5 29 -17
22 -49 -15 -205 -19 -243 -6 -24 7 -79 51 -151 118 -118 112 -197 167 -254
178 -33 7 -34 6 -27 -21z m188 -292 c23 -23 40 -44 37 -47 -2 -2 -45 -7 -95
-10 l-91 -7 -36 40 c-20 23 -37 45 -37 51 0 14 40 33 85 40 48 8 78 -7 137
-67z"/>
</g>
</svg>
